<svg width="400" height="300" xmlns="http://www.w3.org/2000/svg" viewBox="0 0 400 300">
  <style>
    .sky { fill: #87CEEB; }
    .sun { fill: #FFD700; }
    .mountain-front { fill: #6B8E23; }
    .mountain-mid { fill: #4682B4; }
    .mountain-back { fill: #2F4F4F; }
    .snow-cap { fill: white; }
    .flag-pole { stroke: #8B4513; stroke-width: 2; }
    .flag { fill: #DC143C; }
    .tree-trunk { fill: #8B4513; }
    .tree-leaves { fill: #228B22; }
  </style>

  <!-- Cielo y Sol -->
  <rect id="sky" width="400" height="300" class="sky">
    <animate attributeName="fill" values="#87CEEB;#FFDAB9;#FFB347;#2F1B47" dur="10s" repeatCount="indefinite"/>
  </rect>
  <circle id="sun" cx="200" cy="60" r="30" class="sun">
    <animate attributeName="cy" values="60;270;270" dur="10s" repeatCount="indefinite"/>
    <animate attributeName="opacity" values="1;0;0" dur="10s" repeatCount="indefinite"/>
  </circle>

  <!-- Montañas de atrás -->
  <polygon points="50,250 150,50 250,250" class="mountain-back"/>
  <polygon points="200,250 280,80 360,250" class="mountain-back" opacity="0.8"/>

  <!-- Montañas del medio -->
  <polygon points="0,300 100,100 200,300" class="mountain-mid"/>
  <polygon points="150,300 250,120 350,300" class="mountain-mid"/>
  <polygon points="220,120 250,150 280,120" class="snow-cap"/>

  <!-- Montañas de adelante -->
  <polygon points="80,300 180,150 280,300" class="mountain-front"/>
  <polygon points="160,150 180,180 200,150" class="snow-cap"/>

  <!-- Bandera en la cima -->
  <line x1="180" y1="150" x2="180" y2="120" class="flag-pole"/>
  <polygon points="180,120 210,130 180,140" class="flag"/>

  <!-- Árboles triangulares -->
  <g transform="translate(40, 250)">
    <rect x="15" y="0" width="10" height="20" class="tree-trunk"/>
    <polygon points="0,0 20, -40 40,0" class="tree-leaves"/>
  </g>
  <g transform="translate(300, 260)">
    <rect x="15" y="0" width="10" height="20" class="tree-trunk"/>
    <polygon points="0,0 20, -50 40,0" class="tree-leaves"/>
  </g>
</svg>